<?xml version="1.0" encoding="utf-8"?>
<!-- Generator: Adobe Illustrator 22.1.0, SVG Export Plug-In . SVG Version: 6.00 Build 0)  -->
<svg version="1.1" xmlns="http://www.w3.org/2000/svg" xmlns:xlink="http://www.w3.org/1999/xlink" x="0px" y="0px"
	 viewBox="0 0 1920 1080" style="enable-background:new 0 0 1920 1080;" xml:space="preserve">
<style type="text/css">
	.st0{fill:#DBC35D;}
	.st1{fill:#C4AE53;}
	.st2{fill:#FFFFFF;}
	.st3{fill:#56A3FF;}
	.st4{fill:#E0E0E0;}
	.st5{fill:#2B72E0;}
	.st6{fill:#1E509E;}
	.st7{fill:#5B4C3D;}
	.st8{fill:#453A2E;}
	.st9{fill:none;stroke:#F2F2F2;stroke-width:2;stroke-miterlimit:10;}
	.st10{fill:#B81D00;}
	.st11{fill:#F0F0F0;}
	.st12{fill:#003173;}
</style>
<g id="Layer_1">
	<g>
		<rect class="st0" width="1919" height="1080"/>
	</g>
	<g>
		<g>
			<rect x="32" class="st1" width="57" height="1080"/>
		</g>
		<g>
			<rect x="130" class="st1" width="57" height="1080"/>
		</g>
		<g>
			<rect x="234" y="1" class="st1" width="57" height="1080"/>
		</g>
		<g>
			<rect x="332" y="1" class="st1" width="57" height="1080"/>
		</g>
		<g>
			<rect x="437" y="1" class="st1" width="57" height="1080"/>
		</g>
		<g>
			<rect x="535" y="1" class="st1" width="57" height="1080"/>
		</g>
		<g>
			<rect x="639" y="2" class="st1" width="57" height="1080"/>
		</g>
		<g>
			<rect x="737" y="2" class="st1" width="57" height="1080"/>
		</g>
		<g>
			<rect x="839" y="2" class="st1" width="57" height="1080"/>
		</g>
		<g>
			<rect x="937" y="2" class="st1" width="57" height="1080"/>
		</g>
		<g>
			<rect x="1039" y="2" class="st1" width="57" height="1080"/>
		</g>
		<g>
			<rect x="1137" y="2" class="st1" width="57" height="1080"/>
		</g>
		<g>
			<rect x="1242" y="2" class="st1" width="57" height="1080"/>
		</g>
		<g>
			<rect x="1345" y="1" class="st1" width="57" height="1080"/>
		</g>
		<g>
			<rect x="1449" y="2" class="st1" width="57" height="1080"/>
		</g>
		<g>
			<rect x="1547" y="2" class="st1" width="57" height="1080"/>
		</g>
		<g>
			<rect x="1655" class="st1" width="57" height="1080"/>
		</g>
		<g>
			<rect x="1758" y="-1" class="st1" width="57" height="1080"/>
		</g>
		<g>
			<rect x="1862" class="st1" width="57" height="1080"/>
		</g>
	</g>
	<g>
		<rect x="262" y="158" class="st2" width="307" height="251"/>
	</g>
	<g>
		<rect x="426" y="168" class="st3" width="127" height="111"/>
	</g>
	<g>
		<rect x="426" y="287" class="st3" width="127" height="111"/>
	</g>
	<g>
		<rect x="278" y="168" class="st3" width="127" height="111"/>
	</g>
	<g>
		<rect x="278" y="287" class="st3" width="127" height="111"/>
	</g>
	<rect x="247" y="158" class="st4" width="15" height="251"/>
	<g>
		<rect x="234.7" y="409" class="st5" width="357.3" height="14"/>
	</g>
	<rect x="221" y="409" class="st6" width="13.7" height="14"/>
	<g>
		<rect x="1279.3" y="390" class="st7" width="422.7" height="33"/>
	</g>
	<g>
		<rect x="1252" y="390" class="st8" width="27.3" height="33"/>
	</g>
	<g>
		<line class="st9" x1="296.5" y1="242.5" x2="354.5" y2="184.5"/>
	</g>
	<g>
		<line class="st9" x1="448.5" y1="247.5" x2="506.5" y2="189.5"/>
	</g>
	<g>
		<line class="st9" x1="477.5" y1="247.5" x2="512" y2="213"/>
	</g>
	<g>
		<line class="st9" x1="326.5" y1="245.5" x2="361" y2="211"/>
	</g>
	<g>
		<rect x="1402" y="364" class="st10" width="115" height="26"/>
	</g>
	<circle class="st10" cx="1402" cy="377" r="13"/>
	<circle class="st11" cx="1401" cy="377" r="11"/>
	<rect x="1401" y="366" class="st11" width="116" height="22"/>
	<g>
		<g>
			<rect x="1405" y="338" class="st12" width="115" height="26"/>
		</g>
		<circle class="st12" cx="1520" cy="351" r="13"/>
		<circle class="st11" cx="1521" cy="351" r="11"/>
		<rect x="1405" y="340" transform="matrix(-1 -1.224647e-16 1.224647e-16 -1 2926 702)" class="st11" width="116" height="22"/>
	</g>
</g>
<g id="Layer_2">
</g>
</svg>
