<?xml version="1.0" encoding="utf-8"?>
<!-- Generator: Adobe Illustrator 22.1.0, SVG Export Plug-In . SVG Version: 6.00 Build 0)  -->
<svg version="1.1" xmlns="http://www.w3.org/2000/svg" xmlns:xlink="http://www.w3.org/1999/xlink" x="0px" y="0px"
	 viewBox="0 0 1920 1080" style="enable-background:new 0 0 1920 1080;" xml:space="preserve">
<style type="text/css">
	.st0{display:none;}
	.st1{display:inline;}
	.st2{fill:#DBC35D;}
	.st3{fill:#C4AE53;}
	.st4{fill:#FFFFFF;}
	.st5{fill:#56A3FF;}
	.st6{display:inline;fill:#E0E0E0;}
	.st7{fill:#2B72E0;}
	.st8{display:inline;fill:#1E509E;}
	.st9{fill:#5B4C3D;}
	.st10{fill:#453A2E;}
	.st11{fill:none;stroke:#F2F2F2;stroke-width:2;stroke-miterlimit:10;}
	.st12{fill:#B81D00;}
	.st13{display:inline;fill:#B81D00;}
	.st14{display:inline;fill:#F0F0F0;}
	.st15{fill:#003173;}
	.st16{fill:#F0F0F0;}
	.st17{fill:#D1AD6D;stroke:#876F3F;stroke-miterlimit:10;}
	.st18{fill:none;stroke:#876F3F;stroke-width:3;stroke-miterlimit:10;}
	.st19{fill:#876F3F;}
</style>
<g id="Layer_1" class="st0">
	<g class="st1">
		<rect class="st2" width="1919" height="1080"/>
	</g>
	<g class="st1">
		<g>
			<rect x="32" class="st3" width="57" height="1080"/>
		</g>
		<g>
			<rect x="130" class="st3" width="57" height="1080"/>
		</g>
		<g>
			<rect x="234" y="1" class="st3" width="57" height="1080"/>
		</g>
		<g>
			<rect x="332" y="1" class="st3" width="57" height="1080"/>
		</g>
		<g>
			<rect x="437" y="1" class="st3" width="57" height="1080"/>
		</g>
		<g>
			<rect x="535" y="1" class="st3" width="57" height="1080"/>
		</g>
		<g>
			<rect x="639" y="2" class="st3" width="57" height="1080"/>
		</g>
		<g>
			<rect x="737" y="2" class="st3" width="57" height="1080"/>
		</g>
		<g>
			<rect x="839" y="2" class="st3" width="57" height="1080"/>
		</g>
		<g>
			<rect x="937" y="2" class="st3" width="57" height="1080"/>
		</g>
		<g>
			<rect x="1039" y="2" class="st3" width="57" height="1080"/>
		</g>
		<g>
			<rect x="1137" y="2" class="st3" width="57" height="1080"/>
		</g>
		<g>
			<rect x="1242" y="2" class="st3" width="57" height="1080"/>
		</g>
		<g>
			<rect x="1345" y="1" class="st3" width="57" height="1080"/>
		</g>
		<g>
			<rect x="1449" y="2" class="st3" width="57" height="1080"/>
		</g>
		<g>
			<rect x="1547" y="2" class="st3" width="57" height="1080"/>
		</g>
		<g>
			<rect x="1655" class="st3" width="57" height="1080"/>
		</g>
		<g>
			<rect x="1758" y="-1" class="st3" width="57" height="1080"/>
		</g>
		<g>
			<rect x="1862" class="st3" width="57" height="1080"/>
		</g>
	</g>
	<g class="st1">
		<rect x="262" y="158" class="st4" width="307" height="251"/>
	</g>
	<g class="st1">
		<rect x="426" y="168" class="st5" width="127" height="111"/>
	</g>
	<g class="st1">
		<rect x="426" y="287" class="st5" width="127" height="111"/>
	</g>
	<g class="st1">
		<rect x="278" y="168" class="st5" width="127" height="111"/>
	</g>
	<g class="st1">
		<rect x="278" y="287" class="st5" width="127" height="111"/>
	</g>
	<rect x="247" y="158" class="st6" width="15" height="251"/>
	<g class="st1">
		<rect x="234.7" y="409" class="st7" width="357.3" height="14"/>
	</g>
	<rect x="221" y="409" class="st8" width="13.7" height="14"/>
	<g class="st1">
		<rect x="1279.3" y="390" class="st9" width="422.7" height="33"/>
	</g>
	<g class="st1">
		<rect x="1252" y="390" class="st10" width="27.3" height="33"/>
	</g>
	<g class="st1">
		<line class="st11" x1="296.5" y1="242.5" x2="354.5" y2="184.5"/>
	</g>
	<g class="st1">
		<line class="st11" x1="448.5" y1="247.5" x2="506.5" y2="189.5"/>
	</g>
	<g class="st1">
		<line class="st11" x1="477.5" y1="247.5" x2="512" y2="213"/>
	</g>
	<g class="st1">
		<line class="st11" x1="326.5" y1="245.5" x2="361" y2="211"/>
	</g>
	<g class="st1">
		<rect x="1402" y="364" class="st12" width="115" height="26"/>
	</g>
	<circle class="st13" cx="1402" cy="377" r="13"/>
	<circle class="st14" cx="1401" cy="377" r="11"/>
	<rect x="1401" y="366" class="st14" width="116" height="22"/>
	<g class="st1">
		<g>
			<rect x="1405" y="338" class="st15" width="115" height="26"/>
		</g>
		<circle class="st15" cx="1520" cy="351" r="13"/>
		<circle class="st16" cx="1521" cy="351" r="11"/>
		<rect x="1405" y="340" transform="matrix(-1 -1.224647e-16 1.224647e-16 -1 2926 702)" class="st16" width="116" height="22"/>
	</g>
</g>
<g id="Layer_2">
	<g>
		<polygon class="st17" points="2722,1357.3 -685,1357.3 61,2.5 1975.8,2.5 		"/>
		<line class="st18" x1="-577.7" y1="1355.7" x2="121.2" y2="2"/>
		<line class="st18" x1="-455" y1="1358.9" x2="190.5" y2="3"/>
		<line class="st18" x1="-332.4" y1="1358.9" x2="259.4" y2="3"/>
		<line class="st18" x1="-203.8" y1="1352.5" x2="331" y2="1"/>
		<line class="st18" x1="-96.2" y1="1358.9" x2="392.1" y2="3"/>
		<line class="st18" x1="33.5" y1="1358.9" x2="465" y2="3"/>
		<line class="st18" x1="161.4" y1="1358.9" x2="536.9" y2="3"/>
		<line class="st18" x1="296.4" y1="1358.9" x2="612.7" y2="3"/>
		<line class="st18" x1="431.4" y1="1358.9" x2="688.6" y2="3"/>
		<line class="st18" x1="565.6" y1="1352.5" x2="763.7" y2="1"/>
		<line class="st18" x1="697.9" y1="1358.9" x2="838.3" y2="3"/>
		<line class="st18" x1="833.2" y1="1352.5" x2="914.3" y2="1"/>
		<line class="st18" x1="968" y1="1352.5" x2="990" y2="1"/>
		<line class="st18" x1="1102.9" y1="1358.9" x2="1065.8" y2="3"/>
		<line class="st18" x1="1237.4" y1="1352.5" x2="1141.6" y2="1"/>
		<line class="st18" x1="1372.1" y1="1352.5" x2="1217.3" y2="1"/>
		<line class="st18" x1="1510.4" y1="1352.5" x2="1295.1" y2="1"/>
		<line class="st18" x1="1510.9" y1="1355.7" x2="1295.2" y2="2"/>
		<line class="st18" x1="1644.5" y1="1349.4" x2="1370.7" y2="0"/>
		<line class="st18" x1="1779.1" y1="1349.4" x2="1446.4" y2="0"/>
		<line class="st18" x1="1917.2" y1="1349.4" x2="1524.1" y2="0"/>
		<line class="st18" x1="1919.1" y1="1355.7" x2="1524.7" y2="2"/>
		<line class="st18" x1="2051.8" y1="1349.4" x2="1599.8" y2="0"/>
		<line class="st18" x1="2186.4" y1="1349.4" x2="1675.5" y2="0"/>
		<line class="st18" x1="2324.5" y1="1349.4" x2="1753.3" y2="0"/>
		<line class="st18" x1="2329.9" y1="1362" x2="1755" y2="4"/>
		<line class="st18" x1="2462.1" y1="1355.7" x2="1829.9" y2="2"/>
		<line class="st18" x1="2596.9" y1="1355.7" x2="1905.7" y2="2"/>
		<path class="st19" d="M-434.6,1228.4c-6.3,12.9-17.6,23.4-25.2,23.4s-8.5-10.5-2-23.4c6.4-12.8,17.6-23.1,25-23.1
			S-428.3,1215.6-434.6,1228.4z"/>
		<path class="st19" d="M504.1,78.1c-1.4,4.8-6.2,8.7-10.8,8.7c-4.6,0-7.2-3.9-5.8-8.7c1.4-4.8,6.2-8.7,10.8-8.7
			S505.4,73.3,504.1,78.1z"/>
		<path class="st19" d="M642.4,708.5c-1.3,8.8-7.5,15.9-13.7,15.9c-6.2,0-10.1-7.1-8.7-15.9c1.4-8.7,7.6-15.7,13.7-15.7
			S643.8,699.8,642.4,708.5z"/>
		<path class="st19" d="M1275.4,152.8c0.7,5.2-2.6,9.5-7.4,9.5c-4.8,0-9.3-4.3-9.9-9.5c-0.7-5.2,2.7-9.4,7.4-9.4
			S1274.7,147.6,1275.4,152.8z"/>
		<path class="st19" d="M1660.4,613.6c2.2,8.1-0.8,14.7-6.8,14.7c-6,0-12.6-6.6-14.7-14.7c-2.1-8,1-14.5,6.9-14.5
			C1651.6,599,1658.2,605.5,1660.4,613.6z"/>
		<path class="st19" d="M1750,69.4c1.9,4.8-0.2,8.7-4.8,8.7c-4.6,0-9.9-3.9-11.8-8.7c-1.9-4.7,0.3-8.6,4.9-8.6
			C1742.8,60.8,1748.1,64.6,1750,69.4z"/>
		<line class="st18" x1="-293.6" y1="804" x2="-381.1" y2="804"/>
		<line class="st18" x1="43.5" y1="153.4" x2="119.4" y2="153.4"/>
		<line class="st18" x1="-73.6" y1="559.2" x2="17.3" y2="559.2"/>
		<line class="st18" x1="231.1" y1="68.9" x2="304.7" y2="68.9"/>
		<line class="st18" x1="-77.1" y1="1034.3" x2="21.5" y2="1034.3"/>
		<line class="st18" x1="266.1" y1="166.5" x2="333.8" y2="166.5"/>
		<line class="st18" x1="255.6" y1="383.8" x2="344.4" y2="383.8"/>
		<line class="st18" x1="169.5" y1="934" x2="279.8" y2="934"/>
		<line class="st18" x1="508.2" y1="108.5" x2="588.6" y2="108.5"/>
		<line class="st18" x1="422.6" y1="821.1" x2="311" y2="821.1"/>
		<line class="st18" x1="601.1" y1="55" x2="679.2" y2="55"/>
		<line class="st18" x1="470.7" y1="614.5" x2="573.3" y2="614.5"/>
		<line class="st18" x1="552.3" y1="725.4" x2="658.2" y2="725.4"/>
		<line class="st18" x1="670.4" y1="101.8" x2="749.5" y2="101.8"/>
		<line class="st18" x1="733" y1="214.3" x2="817" y2="214.3"/>
		<line class="st18" x1="609.3" y1="1059.9" x2="729.6" y2="1059.9"/>
		<line class="st18" x1="832" y1="68.9" x2="910.7" y2="68.9"/>
		<line class="st18" x1="867.6" y1="791.2" x2="977.9" y2="791.2"/>
		<line class="st18" x1="988.1" y1="153.4" x2="1070.5" y2="153.4"/>
		<line class="st18" x1="1088.4" y1="801.8" x2="1199.1" y2="801.8"/>
		<line class="st18" x1="1225.7" y1="69.9" x2="1147" y2="69.9"/>
		<line class="st18" x1="1326.3" y1="945.9" x2="1446.4" y2="945.9"/>
		<line class="st18" x1="1315.1" y1="123.2" x2="1396.2" y2="123.2"/>
		<line class="st18" x1="1489.4" y1="582" x2="1590.6" y2="582"/>
		<line class="st18" x1="1466.3" y1="78.6" x2="1547.5" y2="78.6"/>
		<line class="st18" x1="1873.2" y1="1195.4" x2="2001.1" y2="1195.4"/>
		<line class="st18" x1="1713.9" y1="338.8" x2="1804.4" y2="338.8"/>
		<line class="st18" x1="1720.1" y1="116.4" x2="1803.1" y2="116.4"/>
		<line class="st18" x1="2185.5" y1="1019.1" x2="2305.7" y2="1019.1"/>
		<line class="st18" x1="1901.2" y1="153.4" x2="1983.6" y2="153.4"/>
		<line class="st18" x1="2175" y1="739.5" x2="2283" y2="739.5"/>
		<line class="st18" x1="2047.9" y1="279.3" x2="2127.7" y2="279.3"/>
		<line class="st18" x1="1264.7" y1="409.4" x2="1360.8" y2="409.4"/>
		<line class="st18" x1="891.9" y1="383.8" x2="984.4" y2="383.8"/>
		<line class="st18" x1="1636.7" y1="108.5" x2="1556.2" y2="108.5"/>
	</g>
</g>
</svg>
